<svg width="20" height="20" viewBox="0 0 20 20" fill="none" xmlns="http://www.w3.org/2000/svg">
<g id="Frame">
<g id="Group">
<path id="Vector" d="M15.115 10.625C15.2434 10.9896 15.4815 11.3055 15.7967 11.5293C16.1118 11.7531 16.4885 11.8739 16.875 11.875C17.9088 11.875 18.75 11.0337 18.75 10C18.75 8.96625 17.9088 8.125 16.875 8.125C16.4885 8.12615 16.1118 8.24692 15.7967 8.47074C15.4815 8.69455 15.2434 9.01043 15.115 9.375H14.375V3.75H15.115C15.2434 4.11457 15.4815 4.43045 15.7967 4.65426C16.1118 4.87808 16.4885 4.99885 16.875 5C17.9088 5 18.75 4.15875 18.75 3.125C18.75 2.09125 17.9088 1.25 16.875 1.25C16.4885 1.25115 16.1118 1.37192 15.7967 1.59574C15.4815 1.81955 15.2434 2.13543 15.115 2.5H13.75C13.5842 2.5 13.4253 2.56585 13.3081 2.68306C13.1908 2.80027 13.125 2.95924 13.125 3.125V9.375H11.875V10.625H13.125V16.875C13.125 17.0408 13.1908 17.1997 13.3081 17.3169C13.4253 17.4342 13.5842 17.5 13.75 17.5H15.115C15.2434 17.8646 15.4815 18.1805 15.7967 18.4043C16.1118 18.6281 16.4885 18.7489 16.875 18.75C17.9088 18.75 18.75 17.9088 18.75 16.875C18.75 15.8413 17.9088 15 16.875 15C16.4885 15.0011 16.1118 15.1219 15.7967 15.3457C15.4815 15.5695 15.2434 15.8854 15.115 16.25H14.375V10.625H15.115ZM6.5625 9.57812V15L10.8712 13.075C10.9837 13.0268 11.0796 12.9466 11.1469 12.8444C11.2143 12.7421 11.2501 12.6224 11.25 12.5V7.5L11.2494 7.495L6.5625 9.57812ZM6.49625 5.05063C6.4185 5.01702 6.3347 4.99968 6.25 4.99968C6.1653 4.99968 6.0815 5.01702 6.00375 5.05063C6.00375 5.05063 1.59625 6.9475 1.57875 6.95687L6.25 9.03312L10.9213 6.95687C10.9038 6.9475 6.49625 5.05063 6.49625 5.05063ZM1.25 7.5V12.5C1.24989 12.6224 1.28573 12.7421 1.35306 12.8444C1.42039 12.9466 1.51625 13.0268 1.62875 13.075L5.9375 15V9.57812L1.25063 7.495L1.25 7.5Z" fill="white"/>
</g>
</g>
</svg>
