<svg width="20" height="20" viewBox="0 0 20 20" fill="none" xmlns="http://www.w3.org/2000/svg">
<g id="Frame">
<g id="Group">
<path id="Vector" d="M14.3609 12.7733C14.2224 11.8321 13.751 10.9717 13.0324 10.3482C12.3139 9.72469 11.3956 9.37941 10.4442 9.375H9.55754C8.60617 9.37941 7.68789 9.72469 6.9693 10.3482C6.2507 10.9717 5.77939 11.8321 5.64087 12.7733L5.21587 15.745C5.2023 15.8411 5.21127 15.939 5.24208 16.0309C5.27288 16.1229 5.32468 16.2065 5.39337 16.275C5.56004 16.4417 6.58254 17.2917 10.0017 17.2917C13.4209 17.2917 14.4409 16.445 14.61 16.275C14.6787 16.2065 14.7305 16.1229 14.7613 16.0309C14.7921 15.939 14.8011 15.8411 14.7875 15.745L14.3609 12.7733ZM6.30004 9.83333C5.49465 10.5758 4.97062 11.5738 4.81671 12.6583L4.50837 14.7917C2.03337 14.775 1.28337 13.875 1.15837 13.6917C1.11006 13.6251 1.07557 13.5495 1.05697 13.4693C1.03836 13.3891 1.03601 13.3061 1.05004 13.225L1.23337 12.1917C1.32889 11.6516 1.55322 11.1426 1.88735 10.7077C2.22148 10.2728 2.65554 9.92489 3.15275 9.69346C3.64995 9.46203 4.19563 9.35391 4.74351 9.37826C5.29139 9.40261 5.82533 9.55871 6.30004 9.83333ZM18.95 13.225C18.9641 13.3061 18.9617 13.3891 18.9431 13.4693C18.9245 13.5495 18.89 13.6251 18.8417 13.6917C18.7167 13.875 17.9667 14.775 15.4917 14.7917L15.1834 12.6583C15.0295 11.5738 14.5054 10.5758 13.7 9.83333C14.1748 9.55871 14.7087 9.40261 15.2566 9.37826C15.8045 9.35391 16.3501 9.46203 16.8473 9.69346C17.3445 9.92489 17.7786 10.2728 18.1127 10.7077C18.4469 11.1426 18.6712 11.6516 18.7667 12.1917L18.95 13.225ZM6.44171 8C6.23194 8.2975 5.95346 8.53997 5.62993 8.70681C5.30641 8.87365 4.94739 8.95994 4.58337 8.95833C4.22025 8.95833 3.86233 8.87205 3.53911 8.70658C3.21588 8.54111 2.9366 8.30121 2.72428 8.00663C2.51196 7.71205 2.37268 7.37124 2.31792 7.01227C2.26316 6.6533 2.29448 6.28646 2.40931 5.94198C2.52414 5.59749 2.71918 5.28523 2.97837 5.03091C3.23756 4.7766 3.55347 4.58751 3.90007 4.47924C4.24667 4.37097 4.61404 4.34661 4.97191 4.40818C5.32977 4.46974 5.66788 4.61546 5.95837 4.83333C5.87482 5.16009 5.83282 5.49607 5.83337 5.83333C5.83401 6.59762 6.04443 7.34708 6.44171 8ZM17.7084 6.66667C17.7086 6.96768 17.6495 7.26577 17.5344 7.54391C17.4193 7.82205 17.2505 8.07477 17.0376 8.28761C16.8248 8.50045 16.5721 8.66925 16.294 8.78434C16.0158 8.89943 15.7177 8.95855 15.4167 8.95833C15.0527 8.95994 14.6937 8.87365 14.3701 8.70681C14.0466 8.53997 13.7681 8.2975 13.5584 8C13.9556 7.34708 14.1661 6.59762 14.1667 5.83333C14.1673 5.49607 14.1253 5.16009 14.0417 4.83333C14.3822 4.57798 14.787 4.42248 15.2109 4.38426C15.6348 4.34604 16.0609 4.42661 16.4416 4.61694C16.8222 4.80727 17.1424 5.09984 17.3661 5.46187C17.5899 5.8239 17.7084 6.24108 17.7084 6.66667Z" fill="white"/>
<path id="Vector_2" d="M10 8.95801C11.7259 8.95801 13.125 7.5589 13.125 5.83301C13.125 4.10712 11.7259 2.70801 10 2.70801C8.27411 2.70801 6.875 4.10712 6.875 5.83301C6.875 7.5589 8.27411 8.95801 10 8.95801Z" fill="white"/>
</g>
</g>
</svg>
