<svg width="24" height="24" viewBox="0 0 24 24" fill="none" xmlns="http://www.w3.org/2000/svg">
<g id="Frame" clip-path="url(#clip0_6651_6190)">
<g id="Group">
<path id="Vector" d="M0.800049 8.0006C0.800049 9.1358 3.92005 10.4006 8.40005 10.4006C8.62205 10.4006 8.84005 10.3918 9.05765 10.3846C9.08937 10.3147 9.1307 10.2495 9.18045 10.191C9.48786 9.82566 9.82604 9.48736 10.1912 9.1798C10.3136 9.07577 10.4629 9.00847 10.6219 8.98567C10.7808 8.96288 10.943 8.98553 11.0897 9.051L12.1792 9.5162C12.6652 9.24211 13.1822 9.02724 13.7192 8.8762L14.1592 7.7762C14.2183 7.6286 14.3166 7.49997 14.4435 7.40423C14.5704 7.30848 14.7211 7.24927 14.8793 7.233C15.2517 7.20057 15.6261 7.19576 15.9993 7.2186V4.625C14.5637 5.7862 11.4128 6.4006 8.40005 6.4006C5.38725 6.4006 2.23645 5.7862 0.800049 4.625V8.0006ZM3.61045 7.8486C3.63453 7.74535 3.69861 7.65589 3.78861 7.59986C3.87861 7.54383 3.98718 7.52583 4.09045 7.5498C4.21725 7.579 4.34645 7.6074 4.47845 7.6338C4.57566 7.65354 4.66207 7.7087 4.7209 7.78856C4.77974 7.86843 4.8068 7.96731 4.79683 8.066C4.78686 8.16469 4.74057 8.25616 4.66696 8.32265C4.59334 8.38914 4.49765 8.4259 4.39845 8.4258C4.37159 8.42609 4.34477 8.42354 4.31845 8.4182C4.17845 8.3902 4.04112 8.36033 3.90645 8.3286C3.80372 8.3039 3.71493 8.23957 3.65947 8.14964C3.60402 8.0597 3.58639 7.95148 3.61045 7.8486ZM1.63765 7.111C1.65991 7.0634 1.69133 7.02065 1.73012 6.98519C1.7689 6.94974 1.8143 6.92228 1.8637 6.90437C1.91311 6.88647 1.96556 6.87847 2.01805 6.88085C2.07055 6.88322 2.12206 6.89591 2.16965 6.9182C2.28965 6.97447 2.41538 7.0286 2.54685 7.0806C2.59673 7.09913 2.64242 7.12742 2.68123 7.16382C2.72004 7.20022 2.7512 7.244 2.77288 7.29259C2.79456 7.34119 2.80633 7.39362 2.8075 7.44682C2.80866 7.50001 2.7992 7.55291 2.77967 7.60241C2.76014 7.6519 2.73092 7.69701 2.69374 7.73507C2.65656 7.77314 2.61216 7.8034 2.56314 7.8241C2.51411 7.84479 2.46146 7.85549 2.40824 7.85558C2.35503 7.85566 2.30234 7.84513 2.25325 7.8246C2.10605 7.7662 1.96445 7.7046 1.83045 7.643C1.78285 7.62074 1.7401 7.58932 1.70464 7.55053C1.66919 7.51175 1.64173 7.46635 1.62382 7.41695C1.60592 7.36754 1.59792 7.31509 1.60029 7.2626C1.60267 7.2101 1.61536 7.15859 1.63765 7.111Z" fill="white"/>
<path id="Vector_2" d="M0.800049 12.8014C0.800049 13.805 3.36565 14.9614 7.22165 15.1654C7.22725 15.069 7.22645 14.9722 7.23605 14.8762C7.25264 14.719 7.3117 14.5693 7.40691 14.4432C7.50211 14.3171 7.62986 14.2192 7.77645 14.1602L8.88005 13.7214C9.03069 13.1841 9.24558 12.6669 9.52005 12.181L9.09525 11.1858C8.86325 11.1922 8.63365 11.2014 8.40005 11.2014C5.38725 11.2014 2.23645 10.587 0.800049 9.42578V12.8014Z" fill="white"/>
<path id="Vector_3" d="M8.40005 5.60078C12.5974 5.60078 16 4.52626 16 3.20078C16 1.8753 12.5974 0.800781 8.40005 0.800781C4.20268 0.800781 0.800049 1.8753 0.800049 3.20078C0.800049 4.52626 4.20268 5.60078 8.40005 5.60078Z" fill="white"/>
<path id="Vector_4" d="M15.6 18.0012C16.9254 18.0012 18 16.9267 18 15.6012C18 14.2757 16.9254 13.2012 15.6 13.2012C14.2745 13.2012 13.2 14.2757 13.2 15.6012C13.2 16.9267 14.2745 18.0012 15.6 18.0012Z" fill="white"/>
<path id="Vector_5" d="M15.6 20.0012C16.4702 20.0012 17.3209 19.7431 18.0445 19.2596C18.768 18.7762 19.332 18.089 19.665 17.285C19.998 16.481 20.0852 15.5963 19.9154 14.7428C19.7456 13.8893 19.3266 13.1053 18.7112 12.4899C18.0959 11.8746 17.3119 11.4555 16.4583 11.2857C15.6048 11.1159 14.7201 11.2031 13.9161 11.5361C13.1121 11.8691 12.425 12.4331 11.9415 13.1567C11.458 13.8802 11.2 14.7309 11.2 15.6012C11.2013 16.7677 11.6653 17.8861 12.4902 18.7109C13.3151 19.5358 14.4334 19.9998 15.6 20.0012ZM15.6 12.4012C16.2329 12.4012 16.8515 12.5889 17.3778 12.9405C17.904 13.2921 18.3142 13.7919 18.5564 14.3766C18.7986 14.9613 18.8619 15.6047 18.7385 16.2255C18.615 16.8462 18.3102 17.4164 17.8627 17.8639C17.4152 18.3114 16.845 18.6162 16.2242 18.7397C15.6035 18.8632 14.9601 18.7998 14.3754 18.5576C13.7906 18.3154 13.2909 17.9052 12.9392 17.379C12.5876 16.8528 12.4 16.2341 12.4 15.6012C12.4009 14.7528 12.7384 13.9394 13.3383 13.3395C13.9382 12.7396 14.7516 12.4021 15.6 12.4012Z" fill="white"/>
<path id="Vector_6" d="M8.03256 16.2504C8.03552 16.2617 8.04114 16.272 8.04893 16.2807C8.05673 16.2893 8.06648 16.2959 8.07736 16.3L9.36256 16.8132C9.42158 16.8368 9.47414 16.8741 9.51588 16.922C9.55761 16.9699 9.58733 17.0271 9.60256 17.0888C9.75101 17.6872 9.9886 18.2599 10.3074 18.7876C10.3401 18.8419 10.3594 18.9032 10.3638 18.9664C10.3682 19.0296 10.3575 19.093 10.3326 19.1512L9.78816 20.4272C9.78265 20.4368 9.77975 20.4476 9.77975 20.4586C9.77975 20.4696 9.78265 20.4805 9.78816 20.49C10.0672 20.8225 10.3743 21.1303 10.7062 21.41C10.7156 21.4176 10.727 21.4222 10.7391 21.4233C10.7511 21.4243 10.7632 21.4218 10.7738 21.416L12.0498 20.8712C12.108 20.8464 12.1713 20.8357 12.2344 20.8401C12.2975 20.8445 12.3587 20.8638 12.413 20.8964C12.9408 21.215 13.5137 21.4523 14.1122 21.6004C14.1739 21.6157 14.231 21.6454 14.279 21.6871C14.3269 21.7288 14.3642 21.7814 14.3878 21.8404L14.9018 23.1272C14.9056 23.1379 14.912 23.1475 14.9205 23.1551C14.9289 23.1627 14.9391 23.1681 14.9502 23.1708C15.3811 23.2104 15.8148 23.2104 16.2458 23.1708C16.2578 23.1687 16.2691 23.1635 16.2784 23.1556C16.2877 23.1477 16.2948 23.1375 16.299 23.126L16.8126 21.8404C16.8361 21.7814 16.8734 21.7288 16.9214 21.6871C16.9693 21.6454 17.0265 21.6157 17.0882 21.6004C17.6866 21.452 18.2593 21.2144 18.787 20.8956C18.8412 20.863 18.9024 20.8437 18.9655 20.8393C19.0287 20.8349 19.0919 20.8456 19.1502 20.8704L20.4254 21.4148C20.435 21.4204 20.4459 21.4233 20.457 21.4233C20.4681 21.4233 20.479 21.4204 20.4886 21.4148C20.8211 21.1352 21.1289 20.8274 21.4086 20.4948C21.4156 20.4853 21.4198 20.474 21.4207 20.4621C21.4215 20.4503 21.419 20.4385 21.4134 20.428L20.8686 19.1508C20.8437 19.0926 20.833 19.0292 20.8373 18.966C20.8417 18.9028 20.8611 18.8415 20.8938 18.7872C21.2125 18.2595 21.4501 17.6868 21.5986 17.0884C21.6138 17.0267 21.6435 16.9695 21.6852 16.9216C21.727 16.8737 21.7795 16.8364 21.8386 16.8128L23.1258 16.2988C23.1362 16.2946 23.1456 16.288 23.153 16.2796C23.1604 16.2711 23.1658 16.261 23.1686 16.25C23.2116 15.8192 23.2116 15.3852 23.1686 14.9544C23.1662 14.9423 23.1609 14.931 23.153 14.9216C23.1451 14.9121 23.1349 14.9048 23.1234 14.9004L21.8382 14.3872C21.7791 14.3637 21.7266 14.3264 21.6848 14.2784C21.6431 14.2305 21.6134 14.1733 21.5982 14.1116C21.4497 13.5132 21.2121 12.9406 20.8934 12.4128C20.8607 12.3585 20.8413 12.2973 20.8369 12.2341C20.8326 12.1708 20.8433 12.1075 20.8682 12.0492L21.4126 10.7732C21.4181 10.7637 21.421 10.7528 21.421 10.7418C21.421 10.7308 21.4181 10.72 21.4126 10.7104C21.133 10.3778 20.8252 10.0699 20.4926 9.79042C20.4831 9.78291 20.4717 9.77834 20.4597 9.77727C20.4476 9.77621 20.4356 9.77869 20.425 9.78442L19.149 10.3292C19.0908 10.3543 19.0275 10.3651 18.9643 10.3607C18.9011 10.3564 18.8399 10.3369 18.7858 10.304C18.2584 9.98574 17.6861 9.74856 17.0882 9.60042C17.0265 9.58519 16.9693 9.55547 16.9214 9.51374C16.8734 9.472 16.8361 9.41944 16.8126 9.36042L16.2986 8.07362C16.2947 8.06292 16.2883 8.05334 16.2798 8.04573C16.2714 8.03812 16.2612 8.03273 16.2502 8.03002C15.8192 7.98999 15.3855 7.98999 14.9546 8.03002C14.9425 8.03213 14.9313 8.03738 14.9219 8.04525C14.9126 8.05312 14.9055 8.06332 14.9014 8.07482L14.3878 9.36042C14.3642 9.41944 14.3269 9.472 14.279 9.51374C14.231 9.55547 14.1739 9.58519 14.1122 9.60042C13.5137 9.74882 12.9411 9.98641 12.4134 10.3052C12.3592 10.3381 12.298 10.3576 12.2348 10.3619C12.1716 10.3663 12.1083 10.3555 12.0502 10.3304L10.775 9.78602C10.7653 9.78055 10.7544 9.77768 10.7434 9.77768C10.7323 9.77768 10.7214 9.78055 10.7118 9.78602C10.3794 10.0659 10.0716 10.3737 9.79176 10.706C9.78469 10.7155 9.78049 10.7269 9.77964 10.7387C9.77879 10.7506 9.78133 10.7624 9.78696 10.7728L10.3318 12.05C10.3567 12.1083 10.3674 12.1716 10.363 12.2349C10.3586 12.2981 10.3393 12.3593 10.3066 12.4136C9.9878 12.9414 9.75021 13.514 9.60176 14.1124C9.58653 14.1741 9.55681 14.2313 9.51507 14.2792C9.47334 14.3272 9.42078 14.3645 9.36176 14.388L8.07456 14.902C8.06409 14.9062 8.05475 14.9128 8.04731 14.9213C8.03988 14.9298 8.03455 14.9399 8.03176 14.9508C7.98876 15.3816 7.98876 15.8156 8.03176 16.2464L8.03256 16.2504ZM15.6002 10.4004C16.6286 10.4004 17.634 10.7054 18.4891 11.2768C19.3443 11.8482 20.0108 12.6603 20.4043 13.6105C20.7979 14.5606 20.9009 15.6062 20.7002 16.6149C20.4996 17.6236 20.0043 18.5501 19.2771 19.2774C18.5499 20.0046 17.6233 20.4999 16.6146 20.7005C15.6059 20.9011 14.5604 20.7982 13.6102 20.4046C12.66 20.011 11.8479 19.3445 11.2765 18.4894C10.7051 17.6343 10.4002 16.6289 10.4002 15.6004C10.4017 14.2218 10.9501 12.9001 11.925 11.9252C12.8998 10.9504 14.2215 10.402 15.6002 10.4004Z" fill="white"/>
<path id="Vector_7" d="M8.40005 20.0016C8.64005 20.0016 8.87285 19.994 9.10605 19.9876L9.51765 19.0232C9.24392 18.5369 9.02984 18.0192 8.88005 17.4816L7.78005 17.0416C7.63253 16.9826 7.50399 16.8842 7.40838 16.7573C7.31277 16.6304 7.25372 16.4797 7.23765 16.3216C7.22565 16.2016 7.22565 16.0816 7.21965 15.9616C3.94365 15.8056 1.84485 15.0748 0.800049 14.1992V17.6016C0.800049 18.7368 3.92005 20.0016 8.40005 20.0016Z" fill="white"/>
</g>
</g>
<defs>
<clipPath id="clip0_6651_6190">
<rect width="24" height="24" fill="white"/>
</clipPath>
</defs>
</svg>
