<svg width="18" height="18" viewBox="0 0 18 18" fill="none" xmlns="http://www.w3.org/2000/svg">
<g clip-path="url(#clip0_2117_95)">
<path d="M8.47266 5.30859V6.46042C7.86016 6.67884 7.41797 7.25871 7.41797 7.94531C7.41797 8.81768 8.12763 9.52734 9 9.52734C9.29095 9.52734 9.52734 9.76373 9.52734 10.0547C9.52734 10.3456 9.29095 10.582 9 10.582C8.70905 10.582 8.47266 10.3456 8.47266 10.0547H7.41797C7.41797 10.7413 7.86016 11.3212 8.47266 11.5396V12.6914H9.52734V11.5396C10.1398 11.3212 10.582 10.7413 10.582 10.0547C10.582 9.18232 9.87237 8.47266 9 8.47266C8.70905 8.47266 8.47266 8.23627 8.47266 7.94531C8.47266 7.65436 8.70905 7.41797 9 7.41797C9.29095 7.41797 9.52734 7.65436 9.52734 7.94531H10.582C10.582 7.25871 10.1398 6.67884 9.52734 6.46042V5.30859H8.47266ZM9.52734 0V4.3072C11.7187 4.55375 13.4491 6.28421 13.6962 8.47266H18C17.7358 3.9446 14.0561 0.264199 9.52734 0ZM5.30835 11.9459C4.65887 11.1338 4.25391 10.1184 4.25391 9C4.25391 6.56343 6.10611 4.57344 8.47266 4.3072V0C3.76847 0.27443 0 4.22694 0 9C0 11.2857 0.89768 13.3649 2.30586 14.9484L5.30835 11.9459Z" fill="white"/>
<path d="M17.9991 9.52734H13.6928C13.4266 11.8939 11.4366 13.7461 9.00004 13.7461C7.88168 13.7461 6.86619 13.3411 6.05412 12.6917L3.05164 15.6941C4.63511 17.1023 6.71435 18 9.00004 18C13.7731 18 17.7247 14.2315 17.9991 9.52734Z" fill="white"/>
</g>
<defs>
<clipPath id="clip0_2117_95">
<rect width="18" height="18" fill="white"/>
</clipPath>
</defs>
</svg>
