<svg width="18" height="18" viewBox="0 0 18 18" fill="none" xmlns="http://www.w3.org/2000/svg">
<g id="Frame" clip-path="url(#clip0_5432_10171)">
<g id="Group">
<path id="Vector" d="M2.06796 11.4201C1.82644 11.4433 1.64925 11.6575 1.67245 11.899C1.6939 12.1264 1.8855 12.2969 2.10944 12.2969C2.12316 12.2969 2.13722 12.2962 2.15163 12.2948C2.24093 12.2864 4.36542 12.0726 7.04538 10.7733C8.61722 10.0111 10.0544 9.03093 11.3176 7.85987C12.7794 6.5046 14.0088 4.88917 14.9777 3.05366L15.0308 3.20624C15.0937 3.388 15.2639 3.50191 15.446 3.50191C15.4938 3.50191 15.5423 3.49417 15.5901 3.47765C15.8193 3.39819 15.941 3.14788 15.8612 2.91831L15.4713 1.79472C15.433 1.68461 15.3526 1.5942 15.2477 1.54335C15.1958 1.51812 15.1394 1.5034 15.0818 1.50002C15.0242 1.49664 14.9664 1.50468 14.9119 1.52366L13.7884 1.91355C13.5591 1.993 13.4378 2.24331 13.5173 2.47288C13.5967 2.7021 13.8471 2.82339 14.0766 2.74394L14.1624 2.71405C13.2494 4.42511 12.0994 5.93261 10.7371 7.19929C9.54253 8.31023 8.18233 9.24116 6.69452 9.96644C4.15589 11.2039 2.09609 11.417 2.06796 11.4198V11.4201Z" fill="white"/>
<path id="Vector_2" d="M5.19855 9.43031C7.53188 9.43031 9.43031 7.53188 9.43031 5.19855C9.43031 2.86523 7.53188 0.966797 5.19855 0.966797C2.86523 0.966797 0.966797 2.86523 0.966797 5.19855C0.966797 7.53188 2.86523 9.43031 5.19855 9.43031ZM5.19855 1.84605C7.04707 1.84605 8.55141 3.35004 8.55141 5.19891C8.55141 7.04777 7.04742 8.55176 5.19855 8.55176C3.34969 8.55176 1.8457 7.04777 1.8457 5.19891C1.8457 3.35004 3.34969 1.84605 5.19855 1.84605Z" fill="white"/>
<path id="Vector_3" d="M5.11667 5.63026C5.16272 5.63905 5.56562 5.72167 5.56562 5.94421C5.56562 6.11296 5.40108 6.25042 5.19858 6.25042C5.04706 6.25042 4.9089 6.17026 4.85476 6.05108C4.75421 5.8303 4.4937 5.73257 4.27292 5.83312C4.05214 5.93366 3.9544 6.19417 4.05495 6.41495C4.19171 6.71554 4.44905 6.94194 4.75948 7.05304V7.33253C4.75948 7.57511 4.95636 7.77198 5.19894 7.77198C5.44151 7.77198 5.63839 7.57511 5.63839 7.33253V7.05304C6.10913 6.88358 6.44487 6.45081 6.44487 5.94421C6.44487 5.36272 5.98784 4.90077 5.28085 4.76647C5.2348 4.75769 4.8319 4.67507 4.8319 4.45253C4.8319 4.28343 4.99644 4.14632 5.19894 4.14632C5.35046 4.14632 5.48862 4.22647 5.54276 4.34601C5.64331 4.56679 5.90347 4.66452 6.1246 4.56397C6.34538 4.46343 6.44312 4.20292 6.34257 3.98214C6.20581 3.68155 5.94847 3.45479 5.63804 3.3437V3.06421C5.63804 2.82163 5.44116 2.62476 5.19858 2.62476C4.95601 2.62476 4.75913 2.82163 4.75913 3.06421V3.3437C4.28839 3.51315 3.95265 3.94628 3.95265 4.45253C3.95265 5.03366 4.40968 5.49597 5.11702 5.62991L5.11667 5.63026ZM16.5938 16.1543H15.2754V9.49323C15.2754 8.47546 14.4475 7.64753 13.4297 7.64753C12.4119 7.64753 11.584 8.47546 11.584 9.49323V16.1543H10.8461V12.728C10.8461 11.7102 10.0182 10.8823 9.00038 10.8823C7.98261 10.8823 7.15468 11.7102 7.15468 12.728V16.1543H6.41675V14.4155C6.41675 13.3977 5.58882 12.5698 4.57104 12.5698C3.55327 12.5698 2.72534 13.3977 2.72534 14.4155V16.1543H1.40698C1.1644 16.1543 0.967529 16.3512 0.967529 16.5937C0.967529 16.8363 1.1644 17.0332 1.40698 17.0332H16.5941C16.8367 17.0332 17.0336 16.8363 17.0336 16.5937C17.0336 16.3512 16.8367 16.1543 16.5941 16.1543H16.5938Z" fill="white"/>
</g>
</g>
<defs>
<clipPath id="clip0_5432_10171">
<rect width="18" height="18" fill="white"/>
</clipPath>
</defs>
</svg>
