<svg width="18" height="18" viewBox="0 0 18 18" fill="none" xmlns="http://www.w3.org/2000/svg">
<g id="Frame">
<g id="Group">
<path id="Layer 29" d="M16.3125 4.5V5.625H1.6875V4.5C1.6875 4.20163 1.80603 3.91548 2.017 3.7045C2.22798 3.49353 2.51413 3.375 2.8125 3.375H4.5V1.6875C4.5 1.53832 4.55926 1.39524 4.66475 1.28975C4.77024 1.18426 4.91332 1.125 5.0625 1.125C5.21168 1.125 5.35476 1.18426 5.46025 1.28975C5.56574 1.39524 5.625 1.53832 5.625 1.6875V3.375H12.375V1.6875C12.375 1.53832 12.4343 1.39524 12.5398 1.28975C12.6452 1.18426 12.7883 1.125 12.9375 1.125C13.0867 1.125 13.2298 1.18426 13.3352 1.28975C13.4407 1.39524 13.5 1.53832 13.5 1.6875V3.375H15.1875C15.4859 3.375 15.772 3.49353 15.983 3.7045C16.194 3.91548 16.3125 4.20163 16.3125 4.5ZM1.6875 6.75H16.3125V15.1875C16.3125 15.4859 16.194 15.772 15.983 15.983C15.772 16.194 15.4859 16.3125 15.1875 16.3125H2.8125C2.51413 16.3125 2.22798 16.194 2.017 15.983C1.80603 15.772 1.6875 15.4859 1.6875 15.1875V6.75ZM5.82188 10.7719L6.94688 11.8519C7.00006 11.9012 7.03984 11.9631 7.06247 12.032C7.0851 12.1009 7.08984 12.1744 7.07625 12.2456L6.8175 13.7756C6.80378 13.8582 6.81336 13.9429 6.84515 14.0203C6.87695 14.0978 6.9297 14.1648 6.99748 14.2139C7.06527 14.2629 7.1454 14.2922 7.22887 14.2982C7.31234 14.3043 7.39584 14.2869 7.47 14.2481L8.83687 13.5281C8.90226 13.495 8.97452 13.4778 9.04781 13.4778C9.1211 13.4778 9.19337 13.495 9.25875 13.5281L10.6256 14.2481C10.6987 14.2797 10.7789 14.2913 10.8579 14.2817C10.9369 14.2722 11.012 14.2418 11.0755 14.1938C11.139 14.1458 11.1886 14.0817 11.2192 14.0083C11.2499 13.9348 11.2605 13.8545 11.25 13.7756L10.9913 12.2456C10.9777 12.1744 10.9824 12.1009 11.005 12.032C11.0277 11.9631 11.0674 11.9012 11.1206 11.8519L12.2456 10.7719C12.3045 10.7126 12.346 10.6383 12.3656 10.5571C12.3851 10.4758 12.3819 10.3908 12.3564 10.3112C12.3308 10.2317 12.2839 10.1607 12.2207 10.106C12.1575 10.0513 12.0805 10.0151 11.9981 10.0013L10.4625 9.78187C10.3931 9.77402 10.3264 9.7501 10.2679 9.71203C10.2093 9.67395 10.1604 9.62276 10.125 9.5625L9.43875 8.17312C9.40132 8.09854 9.34388 8.03583 9.27285 7.99201C9.20183 7.94819 9.12002 7.92498 9.03656 7.92498C8.95311 7.92498 8.8713 7.94819 8.80027 7.99201C8.72925 8.03583 8.67181 8.09854 8.63438 8.17312L7.9425 9.5625C7.9105 9.62801 7.86307 9.68476 7.80427 9.72787C7.74548 9.77099 7.6771 9.79917 7.605 9.81L6.075 10.0294C5.99747 10.0455 5.92549 10.0816 5.86616 10.134C5.80682 10.1865 5.76217 10.2535 5.73662 10.3284C5.71107 10.4034 5.70549 10.4837 5.72044 10.5615C5.73539 10.6392 5.77035 10.7117 5.82188 10.7719Z" fill="white"/>
</g>
</g>
</svg>
