<svg width="20" height="20" viewBox="0 0 20 20" fill="none" xmlns="http://www.w3.org/2000/svg">
<g id="Frame" clip-path="url(#clip0_5432_10212)">
<g id="Group">
<path id="Vector" d="M15.7161 10C15.7161 6.84812 13.1519 4.28387 10 4.28387C6.84812 4.28387 4.28387 6.84812 4.28387 10C4.28387 12.0291 5.34195 13.878 7.06848 14.9082V16.0496H9.41406V12.1974L7.62445 10.4077L8.45309 9.5791L10 11.1261L11.547 9.57914L12.3756 10.4078L10.5859 12.1974V16.0496H12.9316V14.9082C14.658 13.878 15.7161 12.0291 15.7161 10ZM7.07246 17.2216C7.15238 18.7671 8.43488 20 10 20C11.5651 20 12.8476 18.7671 12.9275 17.2216H7.07246ZM0 9.41406H2.32871V10.5859H0V9.41406ZM1.04664 5.5075L1.63258 4.49266L3.64922 5.65699L3.06328 6.67184L1.04664 5.5075ZM4.49246 1.6327L5.5073 1.04676L6.67164 3.06344L5.6568 3.64938L4.49246 1.6327ZM9.41406 0H10.5859V2.32871H9.41406V0ZM13.3281 3.06375L14.4925 1.04711L15.5073 1.63305L14.343 3.64969L13.3281 3.06375ZM16.3502 5.65687L18.3668 4.49254L18.9528 5.50738L16.9361 6.67172L16.3502 5.65687ZM17.6713 9.41406H20V10.5859H17.6713V9.41406ZM16.3503 14.3434L16.9362 13.3286L18.9528 14.4929L18.3669 15.5078L16.3503 14.3434ZM1.04672 14.4923L3.06336 13.3279L3.6493 14.3428L1.63266 15.5071L1.04672 14.4923Z" fill="white"/>
</g>
</g>
<defs>
<clipPath id="clip0_5432_10212">
<rect width="20" height="20" fill="white"/>
</clipPath>
</defs>
</svg>
