<svg width="18" height="18" viewBox="0 0 18 18" fill="none" xmlns="http://www.w3.org/2000/svg">
<g id="Frame">
<g id="Group">
<path id="Vector" d="M1.56515 2.72607C0.7009 2.72607 0 3.42694 0 4.29181C0 5.15606 0.7009 5.85634 1.56515 5.85634C2.4294 5.85634 3.1303 5.15606 3.1303 4.29181C3.1303 3.42694 2.4294 2.72607 1.56515 2.72607ZM1.56515 7.43499C0.7009 7.43499 0 8.13526 0 9.00014C0 9.86439 0.7009 10.5652 1.56515 10.5652C2.4294 10.5652 3.1303 9.86439 3.1303 9.00014C3.1303 8.13526 2.4294 7.43499 1.56515 7.43499ZM1.56515 12.1433C0.7009 12.1433 0 12.8442 0 13.7084C0 14.5727 0.7009 15.2736 1.56515 15.2736C2.4294 15.2736 3.1303 14.5727 3.1303 13.7084C3.1303 12.8442 2.4294 12.1433 1.56515 12.1433ZM16.8231 3.11428H5.68964C5.03972 3.11428 4.5127 3.64131 4.5127 4.29181C4.5127 4.94177 5.03968 5.46876 5.68964 5.46876H16.8231C17.4729 5.46876 18 4.94177 18 4.29181C18 3.64131 17.4729 3.11428 16.8231 3.11428ZM16.8231 7.82261H5.68964C5.03972 7.82261 4.5127 8.34959 4.5127 9.00014C4.5127 9.6501 5.03968 10.1771 5.68964 10.1771H16.8231C17.4729 10.1771 18 9.6501 18 9.00014C18 8.34959 17.4729 7.82261 16.8231 7.82261ZM16.8231 12.5315H5.68964C5.03972 12.5315 4.5127 13.0585 4.5127 13.7084C4.5127 14.3583 5.03968 14.8853 5.68964 14.8853H16.8231C17.4729 14.8853 18 14.3583 18 13.7084C18 13.0584 17.4729 12.5315 16.8231 12.5315Z" fill="white"/>
</g>
</g>
</svg>
