<svg width="18" height="18" viewBox="0 0 18 18" fill="none" xmlns="http://www.w3.org/2000/svg">
<g id="Frame" clip-path="url(#clip0_2155_963)">
<g id="Group">
<g id="Layer 2">
<path id="Vector" d="M12 0.937501H3C2.72909 0.937303 2.46081 0.990517 2.21048 1.0941C1.96016 1.19768 1.73271 1.34959 1.54115 1.54115C1.34959 1.73271 1.19768 1.96016 1.0941 2.21048C0.990517 2.46081 0.937303 2.72909 0.937501 3V15C0.937303 15.2709 0.990517 15.5392 1.0941 15.7895C1.19768 16.0398 1.34959 16.2673 1.54115 16.4588C1.73271 16.6504 1.96016 16.8023 2.21048 16.9059C2.46081 17.0095 2.72909 17.0627 3 17.0625H10.1175C9.17426 16.4894 8.44452 15.6232 8.03973 14.5964C7.63494 13.5696 7.57734 12.4385 7.87572 11.3759C8.17411 10.3133 8.81208 9.37752 9.69221 8.71151C10.5724 8.04551 11.6463 7.68586 12.75 7.6875C13.1937 7.6863 13.6355 7.74688 14.0625 7.8675V3C14.0627 2.72909 14.0095 2.46081 13.9059 2.21048C13.8023 1.96016 13.6504 1.73271 13.4588 1.54115C13.2673 1.34959 13.0398 1.19768 12.7895 1.0941C12.5392 0.990517 12.2709 0.937303 12 0.937501ZM7.5 8.0625H3.75C3.60082 8.0625 3.45774 8.00324 3.35225 7.89775C3.24676 7.79226 3.1875 7.64919 3.1875 7.5C3.1875 7.35082 3.24676 7.20774 3.35225 7.10225C3.45774 6.99676 3.60082 6.9375 3.75 6.9375H7.5C7.64919 6.9375 7.79226 6.99676 7.89775 7.10225C8.00324 7.20774 8.0625 7.35082 8.0625 7.5C8.0625 7.64919 8.00324 7.79226 7.89775 7.89775C7.79226 8.00324 7.64919 8.0625 7.5 8.0625ZM9 5.0625H3.75C3.60082 5.0625 3.45774 5.00324 3.35225 4.89775C3.24676 4.79226 3.1875 4.64918 3.1875 4.5C3.1875 4.35082 3.24676 4.20774 3.35225 4.10225C3.45774 3.99676 3.60082 3.9375 3.75 3.9375H9C9.14919 3.9375 9.29226 3.99676 9.39775 4.10225C9.50324 4.20774 9.5625 4.35082 9.5625 4.5C9.5625 4.64918 9.50324 4.79226 9.39775 4.89775C9.29226 5.00324 9.14919 5.0625 9 5.0625Z" fill="white"/>
<path id="Vector_2" d="M12.75 8.4375C11.8971 8.4375 11.0633 8.69042 10.3541 9.16429C9.64492 9.63815 9.09217 10.3117 8.76577 11.0997C8.43937 11.8877 8.35397 12.7548 8.52037 13.5913C8.68676 14.4279 9.09749 15.1963 9.7006 15.7994C10.3037 16.4025 11.0721 16.8132 11.9087 16.9796C12.7452 17.146 13.6123 17.0606 14.4003 16.7342C15.1883 16.4078 15.8619 15.8551 16.3357 15.1459C16.8096 14.4367 17.0625 13.6029 17.0625 12.75C17.0611 11.6067 16.6063 10.5106 15.7979 9.70214C14.9894 8.89369 13.8933 8.43889 12.75 8.4375ZM14.2725 12.3975L12.7725 13.8975C12.7204 13.9498 12.6584 13.9914 12.5902 14.0197C12.522 14.048 12.4489 14.0626 12.375 14.0626C12.3011 14.0626 12.228 14.048 12.1598 14.0197C12.0916 13.9914 12.0296 13.9498 11.9775 13.8975L11.2275 13.1475C11.1722 13.096 11.1279 13.0339 11.0972 12.9649C11.0664 12.8959 11.0499 12.8214 11.0486 12.7459C11.0472 12.6704 11.0611 12.5953 11.0894 12.5253C11.1177 12.4553 11.1598 12.3916 11.2132 12.3382C11.2666 12.2848 11.3303 12.2427 11.4003 12.2144C11.4703 12.1861 11.5454 12.1722 11.6209 12.1736C11.6964 12.1749 11.7709 12.1914 11.8399 12.2222C11.9089 12.2529 11.971 12.2972 12.0225 12.3525L12.375 12.7042L13.4775 11.6025C13.529 11.5472 13.5911 11.5029 13.6601 11.4722C13.7291 11.4414 13.8036 11.4249 13.8791 11.4236C13.9546 11.4222 14.0297 11.4361 14.0997 11.4644C14.1697 11.4927 14.2334 11.5348 14.2868 11.5882C14.3402 11.6416 14.3823 11.7053 14.4106 11.7753C14.4389 11.8453 14.4528 11.9204 14.4514 11.9959C14.4501 12.0714 14.4336 12.1459 14.4028 12.2149C14.3721 12.2839 14.3278 12.346 14.2725 12.3975Z" fill="white"/>
</g>
</g>
</g>
<defs>
<clipPath id="clip0_2155_963">
<rect width="18" height="18" fill="white"/>
</clipPath>
</defs>
</svg>
