<svg width="18" height="18" viewBox="0 0 18 18" fill="none" xmlns="http://www.w3.org/2000/svg">
<g id="Frame">
<g id="Group">
<path id="Vector" d="M8.99999 10.2689C10.1601 10.2689 11.2324 9.94196 12.0902 9.38649C12.7547 8.9611 13.6195 9.03142 14.2031 9.56228C15.8238 11.0318 16.7449 13.1166 16.7414 15.3068V16.2455C16.7414 17.2158 15.9539 17.9998 14.9836 17.9998H3.0164C2.04609 17.9998 1.25858 17.2158 1.25858 16.2455V15.3068C1.25155 13.1201 2.17265 11.0318 3.79335 9.56579C4.37694 9.03493 5.2453 8.96462 5.90624 9.39001C6.76757 9.94196 7.83632 10.2689 8.99999 10.2689Z" fill="white"/>
<path id="Vector_2" d="M9.00005 8.70469C11.4038 8.70469 13.3524 6.75608 13.3524 4.35234C13.3524 1.94861 11.4038 0 9.00005 0C6.59632 0 4.64771 1.94861 4.64771 4.35234C4.64771 6.75608 6.59632 8.70469 9.00005 8.70469Z" fill="white"/>
</g>
</g>
</svg>
