<svg width="20" height="20" viewBox="0 0 20 20" fill="none" xmlns="http://www.w3.org/2000/svg">
<g id="Frame">
<g id="Group">
<path id="Vector" fill-rule="evenodd" clip-rule="evenodd" d="M13.3085 5.84673C13.6764 5.94521 13.983 6.17947 14.1717 6.50638C14.5359 7.1372 14.3593 7.93416 13.7874 8.35763L12.376 5.91357C12.6683 5.78681 12.9937 5.76236 13.3085 5.84669V5.84673ZM4.51051 15.0771L6.48004 13.9401L3.88531 9.45212L1.91859 10.5878C1.32203 10.9322 0.894375 11.4915 0.714727 12.1625C0.534688 12.8336 0.625274 13.5318 0.969688 14.1282C1.44949 14.9588 2.3225 15.4238 3.21902 15.4238C3.65836 15.4238 4.10336 15.3121 4.51051 15.0771ZM8.61941 17.6517L6.96547 14.7873L5.42172 15.6786L7.07527 18.5431C7.32141 18.9687 7.8675 19.115 8.29328 18.8693C8.49797 18.7511 8.64484 18.5586 8.70699 18.3277C8.76875 18.0967 8.7377 17.8568 8.61941 17.6517V17.6517ZM14.7698 12.0124L9.70223 3.23548C9.59676 3.05244 9.42332 2.95208 9.21356 2.95208C9.20961 2.95208 9.20547 2.95228 9.20152 2.95228C8.98629 2.95623 8.81211 3.06318 8.71117 3.25357C8.53305 3.5897 8.36129 3.94841 8.17957 4.32826C7.41484 5.92548 6.55504 7.72103 4.72297 8.94935L7.33387 13.4663C9.31168 12.4954 11.2961 12.6483 13.0607 12.7847C13.4812 12.8172 13.878 12.8477 14.2586 12.8617C14.4742 12.87 14.6535 12.7724 14.7644 12.5879C14.8757 12.4033 14.8774 12.1988 14.7699 12.0124L14.7698 12.0124ZM13.4959 3.00048C13.3612 3.234 13.4412 3.53263 13.6748 3.66748C13.7487 3.71045 13.8327 3.73307 13.9182 3.73302C14.087 3.73302 14.2514 3.64544 14.3416 3.4888L15.3504 1.74224C15.485 1.50873 15.405 1.21009 15.1714 1.07525C14.9377 0.940444 14.6393 1.02044 14.5046 1.25396L13.4959 3.00048ZM19.3756 8.35599C19.3756 8.08654 19.1572 7.86771 18.886 7.86771L16.8698 7.86791C16.6004 7.86791 16.3815 8.08654 16.3815 8.35619C16.3815 8.62583 16.6004 8.84447 16.8698 8.84447L18.886 8.84427C19.1572 8.84427 19.3756 8.62584 19.3756 8.35599ZM18.2081 4.17591C18.0725 3.9424 17.775 3.8624 17.5415 3.9972L15.7522 5.0299C15.5185 5.16494 15.4385 5.46337 15.5733 5.69708C15.6053 5.75264 15.648 5.80133 15.6989 5.84038C15.7498 5.87943 15.8079 5.90807 15.8698 5.92467C15.9318 5.94126 15.9964 5.94549 16.06 5.9371C16.1236 5.92872 16.1849 5.90789 16.2405 5.8758L18.0292 4.84291C18.2627 4.70806 18.3437 4.40943 18.2081 4.17591Z" fill="white"/>
</g>
</g>
</svg>
