<svg width="24" height="24" viewBox="0 0 24 24" fill="none" xmlns="http://www.w3.org/2000/svg">
<g id="Frame">
<g id="Group">
<g id="Layer 2">
<path id="Vector" d="M13 17.4999C12.9996 18.3054 13.1772 19.101 13.52 19.8299C12.8704 20.4003 12.0345 20.7133 11.17 20.7099H4.82997C3.88131 20.7072 2.97225 20.3292 2.30145 19.6584C1.63064 18.9876 1.25261 18.0785 1.24997 17.1299C1.24149 16.1386 1.4825 15.1611 1.95083 14.2873C2.41916 13.4136 3.09976 12.6716 3.92997 12.1299C5.05645 13.1038 6.49584 13.6398 7.98497 13.6398C9.47411 13.6398 10.9135 13.1038 12.04 12.1299C12.5199 12.4457 12.9482 12.8336 13.31 13.2799C13.5762 13.5867 13.8076 13.9221 14 14.2799C13.3309 15.2187 12.9804 16.3472 13 17.4999Z" fill="white"/>
<path id="Vector_2" d="M7.97999 12.73C10.874 12.73 13.22 10.384 13.22 7.49C13.22 4.59603 10.874 2.25 7.97999 2.25C5.08602 2.25 2.73999 4.59603 2.73999 7.49C2.73999 10.384 5.08602 12.73 7.97999 12.73Z" fill="white"/>
<path id="Vector_3" d="M18.5 13C17.8016 12.9988 17.1126 13.162 16.489 13.4765C15.8653 13.7909 15.3244 14.2477 14.91 14.81C14.317 15.5811 13.997 16.5273 14 17.5C13.9973 18.5572 14.3693 19.5812 15.05 20.39C15.536 20.9701 16.1605 21.4182 16.8656 21.693C17.5707 21.9677 18.3337 22.0602 19.0841 21.9619C19.8344 21.8635 20.5479 21.5775 21.1584 21.1304C21.7689 20.6832 22.2568 20.0893 22.5769 19.4036C22.897 18.7179 23.039 17.9625 22.9898 17.2074C22.9406 16.4522 22.7017 15.7216 22.2953 15.0833C21.8889 14.4449 21.3281 13.9194 20.6647 13.5552C20.0013 13.1911 19.2568 13.0001 18.5 13ZM18.5 20.12C18.3028 20.12 18.1136 20.0424 17.9732 19.9039C17.8328 19.7654 17.7527 19.5772 17.75 19.38C17.75 19.1811 17.829 18.9903 17.9697 18.8497C18.1103 18.709 18.3011 18.63 18.5 18.63C18.6989 18.63 18.8897 18.709 19.0304 18.8497C19.171 18.9903 19.25 19.1811 19.25 19.38C19.2474 19.5772 19.1672 19.7654 19.0268 19.9039C18.8865 20.0424 18.6972 20.12 18.5 20.12ZM19.25 17.38C19.25 17.5789 19.171 17.7697 19.0304 17.9103C18.8897 18.051 18.6989 18.13 18.5 18.13C18.3011 18.13 18.1103 18.051 17.9697 17.9103C17.829 17.7697 17.75 17.5789 17.75 17.38V15.38C17.75 15.1811 17.829 14.9903 17.9697 14.8497C18.1103 14.709 18.3011 14.63 18.5 14.63C18.6989 14.63 18.8897 14.709 19.0304 14.8497C19.171 14.9903 19.25 15.1811 19.25 15.38V17.38Z" fill="white"/>
</g>
</g>
</g>
</svg>
