<svg width="24" height="24" viewBox="0 0 24 24" fill="none" xmlns="http://www.w3.org/2000/svg">
<g id="Frame">
<g id="Group">
<path id="Vector" d="M21.0241 3.45647C21.0241 1.82447 19.6801 0.480469 18.0481 0.480469H10.4641C9.69607 0.480469 8.92807 0.768469 8.44807 1.34447L3.93607 5.56847C3.36007 6.04847 2.97607 6.91247 2.97607 7.77647V20.6405C2.97607 22.2725 4.32007 23.6165 5.95207 23.6165H18.0481C19.6801 23.6165 21.0241 22.2725 21.0241 20.6405V3.45647ZM4.89607 7.68047C4.89607 7.39247 5.08807 7.10447 5.28007 6.91247L9.69607 2.68847C9.79207 2.59247 10.0801 2.40047 10.4641 2.40047H10.5601V6.04847C10.5601 7.00847 9.79207 7.87247 8.73607 7.87247L4.89607 7.68047ZM17.8561 15.5525L14.2081 19.6805C14.0161 19.8725 13.7281 19.9685 13.5361 19.9685H13.4401C13.1521 19.9685 12.8641 19.7765 12.6721 19.5845L10.6561 16.5125L7.58407 19.7765C7.20007 20.1605 6.62407 20.1605 6.24007 19.7765C5.85607 19.3925 5.85607 18.8165 6.24007 18.4325L10.1761 14.3045C10.3681 14.1125 10.6561 14.0165 10.9441 14.0165C11.2321 14.0165 11.5201 14.2085 11.7121 14.4005L13.7281 17.4725L16.5121 14.3045C16.8961 13.9205 17.4721 13.9205 17.8561 14.2085C18.2401 14.4965 18.2401 15.1685 17.8561 15.5525ZM17.5681 9.69647H13.4401C12.8641 9.69647 12.4801 9.31247 12.4801 8.73647C12.4801 8.16047 12.8641 7.77647 13.4401 7.77647H17.5681C18.0481 7.77647 18.5281 8.16047 18.5281 8.73647C18.5281 9.31247 18.1441 9.69647 17.5681 9.69647ZM17.5681 5.85647H13.4401C12.8641 5.85647 12.4801 5.47247 12.4801 4.89647C12.4801 4.32047 12.8641 3.93647 13.4401 3.93647H17.5681C18.0481 3.93647 18.5281 4.32047 18.5281 4.89647C18.5281 5.47247 18.1441 5.85647 17.5681 5.85647Z" fill="white"/>
</g>
</g>
</svg>
