<svg width="20" height="20" viewBox="0 0 20 20" fill="none" xmlns="http://www.w3.org/2000/svg">
<g id="Frame">
<g id="Group">
<path id="Vector" d="M14.1667 17.291C15.8926 17.291 17.2917 15.8919 17.2917 14.166C17.2917 12.4401 15.8926 11.041 14.1667 11.041C12.4409 11.041 11.0417 12.4401 11.0417 14.166C11.0417 15.8919 12.4409 17.291 14.1667 17.291Z" fill="white"/>
<path id="Vector_2" fill-rule="evenodd" clip-rule="evenodd" d="M13.8092 18.1085C12.6178 18.6693 11.3169 18.9593 10.0001 18.9577C5.05591 18.9577 1.04175 14.9435 1.04175 9.99935C1.04175 5.05518 5.05591 1.04102 10.0001 1.04102C14.9442 1.04102 18.9584 5.05518 18.9584 9.99935C18.9584 11.3618 18.6534 12.6527 18.1092 13.8085C18.0195 12.8248 17.5653 11.9101 16.8359 11.2439C16.1066 10.5778 15.1546 10.2082 14.1667 10.2077C13.1171 10.2081 12.1105 10.6253 11.3683 11.3675C10.626 12.1098 10.2089 13.1163 10.2084 14.166C10.2084 16.2302 11.7917 17.9277 13.8092 18.1085ZM11.0417 5.41602V9.58268C11.0417 9.74852 10.9759 9.90768 10.8584 10.0243L7.52508 13.3577C7.46708 13.4157 7.39822 13.4617 7.32244 13.4931C7.24666 13.5245 7.16544 13.5406 7.08342 13.5406C7.00139 13.5406 6.92017 13.5245 6.84439 13.4931C6.76861 13.4617 6.69975 13.4157 6.64175 13.3577C6.58375 13.2997 6.53774 13.2308 6.50635 13.155C6.47496 13.0793 6.4588 12.998 6.4588 12.916C6.4588 12.834 6.47496 12.7528 6.50635 12.677C6.53774 12.6012 6.58375 12.5324 6.64175 12.4743L9.79175 9.32352V5.41602C9.79175 5.25026 9.8576 5.09128 9.97481 4.97407C10.092 4.85686 10.251 4.79102 10.4167 4.79102C10.5825 4.79102 10.7415 4.85686 10.8587 4.97407C10.9759 5.09128 11.0417 5.25026 11.0417 5.41602Z" fill="white"/>
<path id="Vector_3" fill-rule="evenodd" clip-rule="evenodd" d="M18.7751 17.8913L16.6918 15.8079C16.5746 15.6908 16.4158 15.625 16.2501 15.625C16.0844 15.625 15.9256 15.6908 15.8084 15.8079C15.6913 15.9251 15.6255 16.084 15.6255 16.2496C15.6255 16.4153 15.6913 16.5741 15.8084 16.6913L17.8918 18.7746C18.0089 18.8917 18.1678 18.9576 18.3334 18.9576C18.4991 18.9576 18.658 18.8917 18.7751 18.7746C18.8922 18.6575 18.958 18.4986 18.958 18.3329C18.958 18.1673 18.8922 18.0084 18.7751 17.8913Z" fill="white"/>
</g>
</g>
</svg>
