<svg width="20" height="20" viewBox="0 0 20 20" fill="none" xmlns="http://www.w3.org/2000/svg">
<g id="Frame">
<g id="Group">
<path id="Vector" d="M16.8468 15.7154C16.444 14.5166 14.8386 13.7662 13.694 13.2632C13.2456 13.0668 12.0042 12.7336 11.855 12.169C11.8016 11.9656 11.8088 11.7738 11.8526 11.59C11.783 11.6037 11.7122 11.6107 11.6412 11.611H10.8954C10.6093 11.6107 10.3349 11.4968 10.1326 11.2945C9.93029 11.0921 9.81651 10.8177 9.81625 10.5316C9.81625 9.93698 10.3002 9.45358 10.8954 9.45358H11.6412C11.8876 9.45358 12.1212 9.53698 12.3096 9.68578C12.5777 9.65043 12.8423 9.59249 13.1006 9.51258C13.4268 8.82918 13.6812 8.01198 13.7382 7.30858C13.9816 4.29898 12.1366 2.53818 9.49125 2.84258C7.56785 3.06398 6.41885 4.49818 6.29465 6.34458C6.16905 8.22658 6.86685 9.61658 7.60805 10.6362C7.93265 11.082 8.27365 11.3686 8.22125 11.9058C8.16045 12.541 7.48125 12.718 6.99545 12.9132C6.41985 13.1444 5.79985 13.4952 5.50705 13.6574C4.49845 14.2144 3.39145 14.8852 3.14265 15.8028C2.59165 17.8364 4.45245 18.4524 5.98865 18.7368C7.30705 18.98 8.79365 18.9992 10.0164 18.9992C12.2282 18.9992 16.2054 18.9106 16.8468 17.248C17.0292 16.7762 16.951 16.0244 16.8468 15.7154Z" fill="white"/>
<path id="Vector_2" d="M12.1133 10.2286C12.0623 10.15 11.9924 10.0853 11.91 10.0405C11.8277 9.99573 11.7355 9.97217 11.6417 9.972H10.8959C10.8209 9.97 10.7462 9.98305 10.6763 10.0104C10.6064 10.0377 10.5427 10.0788 10.4889 10.1311C10.4351 10.1835 10.3923 10.2461 10.3632 10.3153C10.334 10.3844 10.3189 10.4587 10.3189 10.5338C10.3189 10.6089 10.334 10.6832 10.3632 10.7523C10.3923 10.8215 10.4351 10.8841 10.4889 10.9365C10.5427 10.9888 10.6064 11.0299 10.6763 11.0572C10.7462 11.0846 10.8209 11.0976 10.8959 11.0956H11.6417C11.7443 11.0955 11.8449 11.0671 11.9324 11.0135C12.0199 10.9599 12.0909 10.8832 12.1375 10.7918C13.1773 10.71 14.0817 10.3924 14.7165 9.9234C14.8623 10.0174 15.0347 10.0724 15.2207 10.0724H15.2675C15.3907 10.0724 15.5128 10.0482 15.6266 10.001C15.7404 9.95382 15.8438 9.88466 15.9309 9.79749C16.018 9.71031 16.087 9.60682 16.1341 9.49294C16.1811 9.37906 16.2053 9.25702 16.2051 9.1338V7.2602C16.2052 7.08324 16.155 6.9099 16.0604 6.76035C15.9658 6.6108 15.8306 6.49118 15.6707 6.4154C15.5331 3.4068 13.0425 1 10.0001 1C6.95772 1 4.46672 3.4068 4.32972 6.4154C4.16969 6.49106 4.03445 6.61064 3.93976 6.76021C3.84508 6.90978 3.79485 7.08318 3.79492 7.2602V9.1338C3.79476 9.25695 3.81887 9.37893 3.86588 9.49276C3.91288 9.60659 3.98185 9.71004 4.06884 9.79721C4.15584 9.88437 4.25916 9.95354 4.3729 10.0008C4.48664 10.048 4.60857 10.0723 4.73172 10.0724H4.77912C4.90232 10.0724 5.0243 10.0481 5.1381 10.0009C5.25189 9.95368 5.35527 9.88453 5.44233 9.79736C5.52939 9.71019 5.59841 9.60672 5.64546 9.49287C5.69251 9.37901 5.71665 9.25699 5.71652 9.1338V7.2602C5.71643 7.08571 5.66753 6.91473 5.57536 6.76657C5.48319 6.61841 5.35141 6.49899 5.19492 6.4218C5.32872 3.8868 7.43232 1.8662 10.0001 1.8662C12.5669 1.8662 14.6715 3.8868 14.8047 6.4218C14.6484 6.49913 14.5168 6.6186 14.4247 6.76674C14.3327 6.91488 14.2838 7.08579 14.2837 7.2602V9.1338C14.2837 9.2582 14.3079 9.374 14.3505 9.4822C13.8041 9.8732 13.0087 10.1518 12.1133 10.2286Z" fill="white"/>
</g>
</g>
</svg>
