<svg width="18" height="18" viewBox="0 0 18 18" fill="none" xmlns="http://www.w3.org/2000/svg">
<g id="Frame">
<g id="Group">
<path id="Vector" d="M16.3125 7.875H15.6544C15.4856 6.86812 15.0862 5.9175 14.4928 5.09906L14.9681 4.62656C15.1875 4.40719 15.1875 4.04719 14.9681 3.82781L14.1722 3.03187C13.9528 2.8125 13.5928 2.8125 13.3734 3.03187L12.9094 3.49875C12.0825 2.91094 11.1291 2.51438 10.125 2.34563V1.6875C10.125 1.37812 9.87187 1.125 9.5625 1.125H8.4375C8.12813 1.125 7.875 1.37812 7.875 1.6875V2.34563C6.87094 2.51438 5.9175 2.91094 5.09063 3.49875L4.62656 3.03187C4.40719 2.8125 4.04719 2.8125 3.82781 3.03187L3.03187 3.82781C2.8125 4.04719 2.8125 4.40719 3.03187 4.62656L3.49875 5.09063C2.91094 5.9175 2.51438 6.87094 2.34563 7.875H1.6875C1.37812 7.875 1.125 8.12813 1.125 8.4375V9.5625C1.125 9.87187 1.37812 10.125 1.6875 10.125H2.34563C2.51438 11.1319 2.90812 12.0797 3.49875 12.9094L3.03187 13.3734C2.8125 13.5928 2.8125 13.9528 3.03187 14.1722L3.82781 14.9681C4.04719 15.1875 4.40719 15.1875 4.62656 14.9681L5.09063 14.5013C5.9175 15.0891 6.87094 15.4856 7.875 15.6544V16.3125C7.875 16.6219 8.12813 16.875 8.4375 16.875H9.5625C9.87187 16.875 10.125 16.6219 10.125 16.3125V15.6544C11.1291 15.4856 12.0825 15.0891 12.9094 14.5013L13.3734 14.9681C13.5928 15.1875 13.9528 15.1875 14.1722 14.9681L14.9681 14.1722C15.1875 13.9528 15.1875 13.5928 14.9681 13.3734L14.5013 12.9094C15.0891 12.0825 15.4856 11.1291 15.6544 10.125H16.3125C16.6219 10.125 16.875 9.87187 16.875 9.5625V8.4375C16.875 8.12813 16.6219 7.875 16.3125 7.875ZM10.4991 11.7084V13.6266C10.4991 13.7812 10.3725 13.9078 10.2178 13.9078C10.0631 13.9078 9.93656 13.7812 9.93656 13.6266V11.5369C9.93656 11.43 9.99844 11.3316 10.0969 11.2837C10.98 10.8562 11.5312 9.98156 11.5312 9.00281C11.5312 8.17875 11.1459 7.43344 10.4991 6.96094V9.14062C10.4991 9.24187 10.4456 9.33469 10.3584 9.38531L9.14062 10.0913C9.05344 10.1391 8.94656 10.1391 8.85938 10.0913L7.64156 9.38531C7.55438 9.33469 7.50094 9.24187 7.50094 9.14062V6.96094C6.85406 7.43344 6.46875 8.17875 6.46875 9.00281C6.46875 9.98156 7.02 10.8562 7.90313 11.2837C8.00156 11.3316 8.06344 11.43 8.06344 11.5369V13.6266C8.06344 13.7812 7.93687 13.9078 7.78219 13.9078C7.6275 13.9078 7.50094 13.7812 7.50094 13.6266V11.7084C7.01619 11.4428 6.61216 11.0512 6.33148 10.5749C6.05081 10.0987 5.90389 9.55558 5.90625 9.00281C5.90625 7.80187 6.57844 6.73313 7.66125 6.21563C7.74844 6.17344 7.84969 6.17906 7.93125 6.22969C8.01281 6.28312 8.06344 6.37313 8.06344 6.46875V8.9775L9 9.52031L9.93656 8.9775V6.46875C9.93656 6.37313 9.98719 6.28312 10.0687 6.22969C10.1503 6.17906 10.2516 6.17344 10.3387 6.21563C11.4216 6.73313 12.0938 7.80187 12.0938 9.00281C12.0938 10.1419 11.4863 11.1628 10.4991 11.7084ZM11.7788 13.2328C11.7309 13.2666 11.6775 13.2806 11.6241 13.2806C11.5341 13.2806 11.4441 13.2356 11.3906 13.1541C11.3034 13.0247 11.34 12.8503 11.4694 12.7631C12.7406 11.9278 13.5 10.5216 13.5 9C13.5 7.84406 13.0612 6.74437 12.2653 5.90344C11.4047 4.99781 10.2431 4.5 9 4.5C6.51937 4.5 4.5 6.51937 4.5 9C4.5 10.5216 5.25937 11.9278 6.53062 12.7631C6.66 12.8503 6.69656 13.0247 6.60938 13.1541C6.525 13.2834 6.35063 13.32 6.22125 13.2328C5.51893 12.7725 4.94236 12.1445 4.54363 11.4055C4.1449 10.6664 3.93659 9.83972 3.9375 9C3.9375 6.21 6.21 3.9375 9 3.9375C10.3978 3.9375 11.7028 4.49719 12.6731 5.51531C13.5703 6.46313 14.0625 7.70062 14.0625 9C14.0625 10.71 13.2075 12.2934 11.7788 13.2328Z" fill="white"/>
</g>
</g>
</svg>
