<svg width="18" height="18" viewBox="0 0 18 18" fill="none" xmlns="http://www.w3.org/2000/svg">
<path d="M15.4016 9.60892H14.0096C14.1514 9.99739 14.229 10.4166 14.229 10.8536V16.1147C14.229 16.2969 14.1973 16.4718 14.1396 16.6344H16.4409C17.3006 16.6344 18 15.935 18 15.0754V12.2073C18 10.7746 16.8344 9.60892 15.4016 9.60892ZM3.77104 10.8536C3.77104 10.4166 3.84855 9.99743 3.99045 9.60895H2.5984C1.16564 9.60895 0 10.7746 0 12.2073V15.0754C0 15.9351 0.699363 16.6345 1.55904 16.6345H3.86044C3.80121 16.4676 3.77097 16.2918 3.77104 16.1148V10.8536ZM10.5912 8.25522H7.40879C5.97604 8.25522 4.81039 9.42087 4.81039 10.8536V16.1148C4.81039 16.4017 5.04306 16.6344 5.33007 16.6344H12.6699C12.9569 16.6344 13.1896 16.4018 13.1896 16.1148V10.8536C13.1896 9.42087 12.024 8.25522 10.5912 8.25522ZM9 1.36548C7.27692 1.36548 5.8751 2.7673 5.8751 4.49041C5.8751 5.65918 6.52018 6.67994 7.47285 7.21587C7.92471 7.47005 8.44566 7.61531 9 7.61531C9.55434 7.61531 10.0753 7.47005 10.5272 7.21587C11.4799 6.67994 12.1249 5.65915 12.1249 4.49041C12.1249 2.76733 10.7231 1.36548 9 1.36548ZM3.51274 4.27814C2.22409 4.27814 1.17573 5.3265 1.17573 6.61515C1.17573 7.9038 2.22409 8.95216 3.51274 8.95216C3.82942 8.95243 4.1428 8.88797 4.43366 8.76274C4.92254 8.55226 5.32564 8.17967 5.57508 7.71298C5.75577 7.37529 5.85013 6.99814 5.84975 6.61515C5.84975 5.32653 4.80139 4.27814 3.51274 4.27814ZM14.4873 4.27814C13.1986 4.27814 12.1502 5.3265 12.1502 6.61515C12.1499 6.99815 12.2442 7.37529 12.4249 7.71298C12.6744 8.17971 13.0775 8.5523 13.5663 8.76274C13.8572 8.88797 14.1706 8.95243 14.4873 8.95216C15.7759 8.95216 16.8243 7.9038 16.8243 6.61515C16.8243 5.3265 15.7759 4.27814 14.4873 4.27814Z" fill="white"/>
</svg>
